<mxfile host="app.diagrams.net" modified="2023-11-15T03:53:51.265Z" agent="Mozilla/5.0 (Windows NT 10.0; Win64; x64) AppleWebKit/537.36 (KHTML, like Gecko) Chrome/119.0.0.0 Safari/537.36" etag="rsOiO61EZArdBJSVd-4I" version="22.1.1" type="github">
  <diagram name="Page-1" id="nNpLAruxsdGebeE1YQzH">
    <mxGraphModel dx="1434" dy="907" grid="1" gridSize="10" guides="1" tooltips="1" connect="1" arrows="1" fold="1" page="1" pageScale="1" pageWidth="827" pageHeight="1169" math="0" shadow="0">
      <root>
        <mxCell id="0" />
        <mxCell id="1" parent="0" />
        <mxCell id="aJLEh5gx3QqnoR06jbg_-1" value="Entity" style="whiteSpace=wrap;html=1;align=center;" vertex="1" parent="1">
          <mxGeometry x="1030" y="560" width="120" height="40" as="geometry" />
        </mxCell>
        <mxCell id="aJLEh5gx3QqnoR06jbg_-2" value="Entity" style="whiteSpace=wrap;html=1;align=center;" vertex="1" parent="1">
          <mxGeometry x="1000" y="610" width="120" height="40" as="geometry" />
        </mxCell>
        <mxCell id="aJLEh5gx3QqnoR06jbg_-3" value="&lt;font style=&quot;font-size: 20px;&quot;&gt;Project&lt;/font&gt;" style="whiteSpace=wrap;html=1;align=center;" vertex="1" parent="1">
          <mxGeometry x="200" y="160" width="160" height="80" as="geometry" />
        </mxCell>
        <mxCell id="aJLEh5gx3QqnoR06jbg_-4" value="&lt;font style=&quot;font-size: 20px;&quot;&gt;Client&lt;/font&gt;" style="whiteSpace=wrap;html=1;align=center;" vertex="1" parent="1">
          <mxGeometry x="550" y="60" width="160" height="80" as="geometry" />
        </mxCell>
        <mxCell id="aJLEh5gx3QqnoR06jbg_-5" value="&lt;font style=&quot;font-size: 20px;&quot;&gt;User&lt;/font&gt;" style="whiteSpace=wrap;html=1;align=center;" vertex="1" parent="1">
          <mxGeometry x="850" y="10" width="160" height="80" as="geometry" />
        </mxCell>
        <mxCell id="aJLEh5gx3QqnoR06jbg_-6" value="&lt;font style=&quot;font-size: 20px;&quot;&gt;Stage&lt;/font&gt;" style="whiteSpace=wrap;html=1;align=center;" vertex="1" parent="1">
          <mxGeometry x="200" y="560" width="160" height="80" as="geometry" />
        </mxCell>
        <mxCell id="aJLEh5gx3QqnoR06jbg_-7" value="&lt;font style=&quot;font-size: 20px;&quot;&gt;Comment&lt;/font&gt;" style="whiteSpace=wrap;html=1;align=center;" vertex="1" parent="1">
          <mxGeometry x="560" y="560" width="160" height="80" as="geometry" />
        </mxCell>
        <mxCell id="aJLEh5gx3QqnoR06jbg_-11" style="edgeStyle=orthogonalEdgeStyle;rounded=0;orthogonalLoop=1;jettySize=auto;html=1;entryX=0;entryY=0;entryDx=0;entryDy=0;" edge="1" parent="1" source="aJLEh5gx3QqnoR06jbg_-8" target="aJLEh5gx3QqnoR06jbg_-3">
          <mxGeometry relative="1" as="geometry" />
        </mxCell>
        <mxCell id="aJLEh5gx3QqnoR06jbg_-8" value="name" style="ellipse;whiteSpace=wrap;html=1;align=center;" vertex="1" parent="1">
          <mxGeometry x="80" y="80" width="100" height="40" as="geometry" />
        </mxCell>
        <mxCell id="aJLEh5gx3QqnoR06jbg_-12" value="id" style="ellipse;whiteSpace=wrap;html=1;align=center;fontStyle=4;" vertex="1" parent="1">
          <mxGeometry x="200" y="40" width="100" height="40" as="geometry" />
        </mxCell>
        <mxCell id="aJLEh5gx3QqnoR06jbg_-13" style="edgeStyle=orthogonalEdgeStyle;rounded=0;orthogonalLoop=1;jettySize=auto;html=1;entryX=0.319;entryY=-0.025;entryDx=0;entryDy=0;entryPerimeter=0;" edge="1" parent="1" source="aJLEh5gx3QqnoR06jbg_-12" target="aJLEh5gx3QqnoR06jbg_-3">
          <mxGeometry relative="1" as="geometry" />
        </mxCell>
        <mxCell id="aJLEh5gx3QqnoR06jbg_-15" style="edgeStyle=orthogonalEdgeStyle;rounded=0;orthogonalLoop=1;jettySize=auto;html=1;entryX=0.75;entryY=0;entryDx=0;entryDy=0;" edge="1" parent="1" source="aJLEh5gx3QqnoR06jbg_-14" target="aJLEh5gx3QqnoR06jbg_-3">
          <mxGeometry relative="1" as="geometry" />
        </mxCell>
        <mxCell id="aJLEh5gx3QqnoR06jbg_-14" value="created_at" style="ellipse;whiteSpace=wrap;html=1;align=center;" vertex="1" parent="1">
          <mxGeometry x="360" y="40" width="100" height="40" as="geometry" />
        </mxCell>
        <mxCell id="aJLEh5gx3QqnoR06jbg_-16" value="&lt;font style=&quot;font-size: 20px;&quot;&gt;Status&lt;/font&gt;" style="whiteSpace=wrap;html=1;align=center;" vertex="1" parent="1">
          <mxGeometry x="827" y="250" width="160" height="80" as="geometry" />
        </mxCell>
        <mxCell id="aJLEh5gx3QqnoR06jbg_-20" style="edgeStyle=orthogonalEdgeStyle;rounded=0;orthogonalLoop=1;jettySize=auto;html=1;entryX=0.5;entryY=1;entryDx=0;entryDy=0;" edge="1" parent="1" source="aJLEh5gx3QqnoR06jbg_-17" target="aJLEh5gx3QqnoR06jbg_-6">
          <mxGeometry relative="1" as="geometry" />
        </mxCell>
        <mxCell id="aJLEh5gx3QqnoR06jbg_-17" value="name" style="ellipse;whiteSpace=wrap;html=1;align=center;" vertex="1" parent="1">
          <mxGeometry x="230" y="690" width="100" height="40" as="geometry" />
        </mxCell>
        <mxCell id="aJLEh5gx3QqnoR06jbg_-18" value="id" style="ellipse;whiteSpace=wrap;html=1;align=center;fontStyle=4;" vertex="1" parent="1">
          <mxGeometry x="60" y="660" width="100" height="40" as="geometry" />
        </mxCell>
        <mxCell id="aJLEh5gx3QqnoR06jbg_-19" style="edgeStyle=orthogonalEdgeStyle;rounded=0;orthogonalLoop=1;jettySize=auto;html=1;entryX=-0.006;entryY=0.6;entryDx=0;entryDy=0;entryPerimeter=0;" edge="1" parent="1" source="aJLEh5gx3QqnoR06jbg_-18" target="aJLEh5gx3QqnoR06jbg_-6">
          <mxGeometry relative="1" as="geometry" />
        </mxCell>
      </root>
    </mxGraphModel>
  </diagram>
</mxfile>
